<svg width="8" height="5" viewBox="0 0 8 5" fill="none" xmlns="http://www.w3.org/2000/svg">
<path d="M3.99999 4.98337C3.9111 4.98337 3.82488 4.9667 3.74133 4.93337C3.65777 4.90003 3.58844 4.85559 3.53332 4.80003L0.466658 1.73337C0.344436 1.61114 0.283325 1.45559 0.283325 1.2667C0.283325 1.07781 0.344436 0.922255 0.466658 0.800032C0.58888 0.67781 0.744436 0.616699 0.933325 0.616699C1.12221 0.616699 1.27777 0.67781 1.39999 0.800032L3.99999 3.40003L6.59999 0.800032C6.72221 0.67781 6.87777 0.616699 7.06666 0.616699C7.25555 0.616699 7.4111 0.67781 7.53332 0.800032C7.65555 0.922255 7.71666 1.07781 7.71666 1.2667C7.71666 1.45559 7.65555 1.61114 7.53332 1.73337L4.46666 4.80003C4.39999 4.8667 4.32777 4.91403 4.24999 4.94203C4.17221 4.97003 4.08888 4.98381 3.99999 4.98337Z" fill="black"/>
</svg>
