<svg width="26" height="25" viewBox="0 0 26 25" fill="none" xmlns="http://www.w3.org/2000/svg">
<path d="M14.25 12.25L15.375 13.375C15.6042 13.6042 15.8958 13.7188 16.25 13.7188C16.6042 13.7188 16.8958 13.6042 17.125 13.375C17.3542 13.1458 17.4688 12.8542 17.4688 12.5C17.4688 12.1458 17.3542 11.8542 17.125 11.625L13.875 8.375C13.625 8.125 13.3333 8 13 8C12.6667 8 12.375 8.125 12.125 8.375L8.875 11.625C8.64583 11.8542 8.53125 12.1458 8.53125 12.5C8.53125 12.8542 8.64583 13.1458 8.875 13.375C9.10417 13.6042 9.39583 13.7188 9.75 13.7188C10.1042 13.7188 10.3958 13.6042 10.625 13.375L11.75 12.25L11.75 16.25C11.75 16.6042 11.87 16.9013 12.11 17.1413C12.35 17.3813 12.6467 17.5008 13 17.5C13.3542 17.5 13.6513 17.38 13.8913 17.14C14.1313 16.9 14.2508 16.6033 14.25 16.25L14.25 12.25ZM13 1.90735e-06C14.7292 1.90735e-06 16.3542 0.328337 17.875 0.985003C19.3958 1.64167 20.7188 2.53209 21.8438 3.65625C22.9688 4.78125 23.8592 6.10417 24.515 7.625C25.1708 9.14583 25.4992 10.7708 25.5 12.5C25.5 14.2292 25.1717 15.8542 24.515 17.375C23.8583 18.8958 22.9679 20.2188 21.8438 21.3438C20.7188 22.4687 19.3958 23.3592 17.875 24.015C16.3542 24.6708 14.7292 24.9992 13 25C11.2708 25 9.64583 24.6717 8.125 24.015C6.60417 23.3583 5.28125 22.4679 4.15625 21.3437C3.03125 20.2188 2.14042 18.8958 1.48375 17.375C0.827087 15.8542 0.499168 14.2292 0.500002 12.5C0.500002 10.7708 0.828337 9.14583 1.485 7.625C2.14167 6.10417 3.03209 4.78125 4.15625 3.65625C5.28125 2.53125 6.60417 1.64042 8.125 0.983753C9.64583 0.327087 11.2708 -0.000831604 13 1.90735e-06Z" fill="#FD5A5D"/>
</svg>
