<svg width="25" height="26" viewBox="0 0 25 26" fill="none" xmlns="http://www.w3.org/2000/svg">
<path d="M10.75 15.25L8.0625 12.5625C7.83333 12.3333 7.54167 12.2187 7.1875 12.2187C6.83333 12.2187 6.54167 12.3333 6.3125 12.5625C6.08333 12.7917 5.96875 13.0833 5.96875 13.4375C5.96875 13.7917 6.08333 14.0833 6.3125 14.3125L9.875 17.875C10.125 18.125 10.4167 18.25 10.75 18.25C11.0833 18.25 11.375 18.125 11.625 17.875L18.6875 10.8125C18.9167 10.5833 19.0312 10.2917 19.0312 9.9375C19.0312 9.58333 18.9167 9.29167 18.6875 9.0625C18.4583 8.83333 18.1667 8.71875 17.8125 8.71875C17.4583 8.71875 17.1667 8.83333 16.9375 9.0625L10.75 15.25ZM12.5 25.5C10.7708 25.5 9.14583 25.1717 7.625 24.515C6.10417 23.8583 4.78125 22.9679 3.65625 21.8437C2.53125 20.7188 1.64083 19.3958 0.985 17.875C0.329167 16.3542 0.000833333 14.7292 0 13C0 11.2708 0.328333 9.64583 0.985 8.125C1.64167 6.60417 2.53208 5.28125 3.65625 4.15625C4.78125 3.03125 6.10417 2.14083 7.625 1.485C9.14583 0.829167 10.7708 0.500833 12.5 0.5C14.2292 0.5 15.8542 0.828333 17.375 1.485C18.8958 2.14167 20.2188 3.03208 21.3437 4.15625C22.4687 5.28125 23.3596 6.60417 24.0162 8.125C24.6729 9.64583 25.0008 11.2708 25 13C25 14.7292 24.6717 16.3542 24.015 17.875C23.3583 19.3958 22.4679 20.7188 21.3437 21.8437C20.2188 22.9687 18.8958 23.8596 17.375 24.5162C15.8542 25.1729 14.2292 25.5008 12.5 25.5Z" fill="#13AD95"/>
</svg>
