<svg width="26" height="25" viewBox="0 0 26 25" fill="none" xmlns="http://www.w3.org/2000/svg">
<path d="M11.75 12.75L10.625 11.625C10.3958 11.3958 10.1042 11.2812 9.75 11.2812C9.39583 11.2812 9.10417 11.3958 8.875 11.625C8.64583 11.8542 8.53125 12.1458 8.53125 12.5C8.53125 12.8542 8.64583 13.1458 8.875 13.375L12.125 16.625C12.375 16.875 12.6667 17 13 17C13.3333 17 13.625 16.875 13.875 16.625L17.125 13.375C17.3542 13.1458 17.4687 12.8542 17.4687 12.5C17.4687 12.1458 17.3542 11.8542 17.125 11.625C16.8958 11.3958 16.6042 11.2812 16.25 11.2812C15.8958 11.2812 15.6042 11.3958 15.375 11.625L14.25 12.75V8.75C14.25 8.39583 14.13 8.09875 13.89 7.85875C13.65 7.61875 13.3533 7.49917 13 7.5C12.6458 7.5 12.3487 7.62 12.1087 7.86C11.8687 8.1 11.7492 8.39667 11.75 8.75V12.75ZM13 25C11.2708 25 9.64583 24.6717 8.125 24.015C6.60417 23.3583 5.28125 22.4679 4.15625 21.3437C3.03125 20.2187 2.14083 18.8958 1.485 17.375C0.829167 15.8542 0.500833 14.2292 0.5 12.5C0.5 10.7708 0.828333 9.14583 1.485 7.625C2.14167 6.10417 3.03208 4.78125 4.15625 3.65625C5.28125 2.53125 6.60417 1.64083 8.125 0.985C9.64583 0.329167 11.2708 0.000833333 13 0C14.7292 0 16.3542 0.328333 17.875 0.985C19.3958 1.64167 20.7187 2.53208 21.8437 3.65625C22.9687 4.78125 23.8596 6.10417 24.5162 7.625C25.1729 9.14583 25.5008 10.7708 25.5 12.5C25.5 14.2292 25.1717 15.8542 24.515 17.375C23.8583 18.8958 22.9679 20.2187 21.8437 21.3437C20.7187 22.4687 19.3958 23.3596 17.875 24.0162C16.3542 24.6729 14.7292 25.0008 13 25Z" fill="#13AD95"/>
</svg>
